inDegrees=yes
name=ik_OwnShooting_orientations.mot
DataType=double
version=3
OpenSimVersion=4.3-2021-08-27-4bc7ad9
endheader
time	pelvis_tilt	pelvis_list	pelvis_rotation	pelvis_tx	pelvis_ty	pelvis_tz	hip_flexion_r	hip_adduction_r	hip_rotation_r	knee_angle_r	knee_angle_r_beta	ankle_angle_r	subtalar_angle_r	mtp_angle_r	hip_flexion_l	hip_adduction_l	hip_rotation_l	knee_angle_l	knee_angle_l_beta	ankle_angle_l	subtalar_angle_l	mtp_angle_l	lumbar_extension	lumbar_bending	lumbar_rotation	arm_flex_r	arm_add_r	arm_rot_r	elbow_flex_r	pro_sup_r	wrist_flex_r	wrist_dev_r	arm_flex_l	arm_add_l	arm_rot_l	elbow_flex_l	pro_sup_l	wrist_flex_l	wrist_dev_l
7.5	0.6671845318283424	-1.781613522984232	-146.6274356732547	0	0.9399999999999999	0	44.83676177428511	-10.00090429906575	0	59.95457327287031	1.04640470523978	-5.000057927814744	0	0	44.83676177428511	-10.00090429906575	0	59.95457327287031	1.04640470523978	-5.000057927814744	0	0	2.1191594436801	-2.965276674800848	1.745565685976286	16.884477246485	-16.9486137741556	71.15399822612778	0.002360717184861034	45.00370127824538	0	0	0	-14.23499152986507	0	75.2022043027598	45.00370127824538	0	0
7.51	0.6610520795314208	-1.805866145347472	-146.6249190248369	0	0.9399999999999999	0	44.83682491204256	-10.00090307651167	0	59.95458709693916	1.046404946515297	-5.000057825401166	0	0	44.83682491204256	-10.00090307651167	0	59.95458709693916	1.046404946515297	-5.000057825401166	0	0	2.107362865471983	-2.992720888426157	1.728412607056795	17.20109337764217	-15.17308387226096	70.379000672277	0.002299379133572588	45.00369732039572	0	0	0	-14.23514294702041	0	75.20212616182945	45.00369732039572	0	0
7.52	0.6664989664968649	-1.79559395935651	-146.6258329117824	0	0.9399999999999999	0	44.836876405495	-10.00090208349601	0	59.95459840269836	1.04640514383802	-5.000057742295773	0	0	44.836876405495	-10.00090208349601	0	59.95459840269836	1.04640514383802	-5.000057742295773	0	0	2.133705958084929	-2.983889314726226	1.742270303947147	17.60431597082338	-14.30874899414339	69.93172889280478	0.002266613009583621	45.00369410305846	0	0	0	-14.23526669669645	0	75.20206243219391	45.00369410305846	0	0
7.53	0.6697031740764584	-1.798613315762404	-146.6147644398267	0	0.9399999999999999	0	44.83692871505145	-10.00090107416968	0	59.95460987624404	1.046405344089169	-5.000057657830989	0	0	44.83692871505145	-10.00090107416968	0	59.95460987624404	1.046405344089169	-5.000057657830989	0	0	2.12633151136027	-2.986864517802941	1.733938665628366	17.94481812624565	-13.0513773114823	69.63941935980783	0.002221221254636542	45.00369083291677	0	0	0	-14.23539233156966	0	75.2019976925269	45.00369083291677	0	0
7.54	0.6607217603503726	-1.804210865664098	-146.6141171307648	0	0.9399999999999999	0	44.83698275585083	-10.00090003173814	0	59.95462172628273	1.04640555091136	-5.000057570615116	0	0	44.83698275585083	-10.00090003173814	0	59.95462172628273	1.04640555091136	-5.000057570615116	0	0	2.104837716113508	-2.987916827185095	1.732726969750046	17.96495313029012	-11.87660219201748	69.36939540911884	0.002187295469968605	45.00368745506943	0	0	0	-14.23552211244608	0	75.20193081022867	45.00368745506943	0	0
7.55	0.6614721124169088	-1.807537759008047	-146.6063916645724	0	0.9399999999999999	0	44.83703343974694	-10.00089905404342	0	59.95463283485567	1.046405744792533	-5.000057488827966	0	0	44.83703343974694	-10.00089905404342	0	59.95463283485567	1.046405744792533	-5.000057488827966	0	0	2.094763158718775	-2.983696114127335	1.723323171225087	17.51057448252854	-11.25005005915694	69.1701962384155	0.002187662600476003	45.00368428676061	0	0	0	-14.23564380175868	0	75.20186808252124	45.00368428676061	0	0
7.56	0.6526369055476576	-1.811090967386317	-146.60674870949	0	0.9399999999999999	0	44.8370859126097	-10.0008980419404	0	59.95464432873719	1.046405945398609	-5.000057404182386	0	0	44.8370859126097	-10.0008980419404	0	59.95464432873719	1.046405945398609	-5.000057404182386	0	0	2.091081975962984	-2.989179591658427	1.728731118223017	17.87775128997115	-10.49347051370986	69.72135506315669	0.002155830596244653	45.00368100653314	0	0	0	-14.2357697473015	0	75.2018031407422	45.00368100653314	0	0
7.57	0.6635135381056859	-1.849159690744206	-146.5930978749447	0	0.9399999999999999	0	44.83711932310954	-10.00089739879884	0	59.95465165551698	1.04640607327504	-5.000057350422972	0	0	44.83711932310954	-10.00089739879884	0	59.95465165551698	1.04640607327504	-5.000057350422972	0	0	2.070043143391849	-3.042077671452367	1.720464567639471	17.93116826301773	-11.44127366409103	69.81648554439222	0.002180067142574304	45.00367892122279	0	0	0	-14.23585001200123	0	75.20176179103909	45.00367892122279	0	0
7.58	0.651019046836727	-1.827904584457204	-146.5853276144077	0	0.9399999999999999	0	44.83715069750409	-10.00089679544153	0	59.9546585394901	1.046406193423037	-5.000057300002783	0	0	44.83715069750409	-10.00089679544153	0	59.9546585394901	1.046406193423037	-5.000057300002783	0	0	2.051238849390432	-3.006518406125481	1.694434946483117	17.86187206852965	-11.67501232837795	69.55070944547798	0.002184294058661815	45.00367696449283	0	0	0	-14.23592541873961	0	75.20172296127286	45.00367696449283	0	0
7.59	0.6473183094171719	-1.814524194554724	-146.5856528835331	0	0.9399999999999999	0	44.83719077809109	-10.00089602911544	0	59.95466736994339	1.046406347543521	-5.000057236046448	0	0	44.83719077809109	-10.00089602911544	0	59.95466736994339	1.046406347543521	-5.000057236046448	0	0	2.048853857770009	-2.982339157162555	1.698821735106426	18.23825546785552	-11.22890645443012	69.09092770832768	0.002152935404822202	45.00367447648313	0	0	0	-14.23602204229813	0	75.20167335649664	45.00367447648313	0	0
7.6	0.6466617586427925	-1.832806532132884	-146.5836053182549	0	0.9399999999999999	0	44.83912127901806	-10.00086147445054	0	59.95512632428947	1.046414357807977	-5.000054386468666	0	0	44.83912127901806	-10.00086147445054	0	59.95512632428947	1.046414357807977	-5.000054386468666	0	0	2.017906356138116	-2.998336749734961	1.708669587184487	19.4957932530891	-8.831173654342027	67.90345726513831	0.002042024388642004	45.00356107544113	0	0	0	-14.24088465778845	0	75.19928411829346	45.00356107544113	0	0
7.61	0.630668928697919	-1.847952083599804	-146.5742213004219	0	0.9399999999999999	0	44.84120255948223	-10.00082472563335	0	59.95561729559426	1.046422926873778	-5.000051381577816	0	0	44.84120255948223	-10.00082472563335	0	59.95561729559426	1.046422926873778	-5.000051381577816	0	0	1.994751212235286	-2.992693159221766	1.690646163245339	21.28104133517311	-7.048488335564755	66.54631494801077	0.001941093129316072	45.00343983318054	0	0	0	-14.24612060330682	0	75.19670827146147	45.00343983318054	0	0
7.62	0.6406282211552959	-1.837376758600083	-146.5814261610497	0	0.9399999999999999	0	44.84371962088954	-10.00078266857052	0	59.95620778305514	1.046433232824162	-5.000048022410701	0	0	44.84371962088954	-10.00078266857052	0	59.95620778305514	1.046433232824162	-5.000048022410701	0	0	1.997476169388744	-2.991532507192895	1.697487501660504	23.6059262610609	-5.45687798519323	64.43816612193879	0.001839345054853255	45.00329877065398	0	0	0	-14.25250091021777	0	75.19359309101756	45.00329877065398	0	0
7.63	0.6450451999846734	-1.832395156070559	-146.5735496471643	0	0.9399999999999999	0	44.84597760444872	-10.00074648584848	0	59.9567368691155	1.046442467117942	-5.00004518465208	0	0	44.84597760444872	-10.00074648584848	0	59.9567368691155	1.046442467117942	-5.00004518465208	0	0	2.000769114294281	-2.986740461425994	1.679987362606961	25.47447874177788	-5.930641180225657	62.09684014766984	0.001793788477981037	45.00317586994939	0	0	0	-14.2582596976549	0	75.19079855214439	45.00317586994939	0	0
7.64	0.6507163369124481	-1.841650569100306	-146.5640599553851	0	0.9399999999999999	0	44.84791827194534	-10.00071646491575	0	59.95719315105186	1.046450430740049	-5.000042864153837	0	0	44.84791827194534	-10.00071646491575	0	59.95719315105186	1.046450430740049	-5.000042864153837	0	0	1.983860809283716	-2.980591012031227	1.655162492107682	26.19393610585765	-6.983328624307749	59.99547485645886	0.001786805297436524	45.00307285883812	0	0	0	-14.26324476496719	0	75.1883967318925	45.00307285883812	0	0
7.65	0.6411714027383714	-1.812387463244188	-146.5589284520676	0	0.9399999999999999	0	44.849108844296	-10.00069547399909	0	59.9574675379017	1.046455219694003	-5.000041195943401	0	0	44.849108844296	-10.00069547399909	0	59.9574675379017	1.046455219694003	-5.000041195943401	0	0	1.985410882569372	-2.93302275364722	1.639416242581053	26.35058054208642	-6.470281419540008	58.99860511795222	0.001768300598299525	45.00300266568719	0	0	0	-14.26614818721641	0	75.18692324861031	45.00300266568719	0	0
7.66	0.6457957913412796	-1.855576362439155	-146.5526130921917	0	0.9399999999999999	0	44.84915332738589	-10.00069475663236	0	59.95747740048072	1.046455391828479	-5.000041140300712	0	0	44.84915332738589	-10.00069475663236	0	59.95747740048072	1.046455391828479	-5.000041140300712	0	0	1.949185328541191	-2.978781384159344	1.632880015861991	26.29843342966317	-7.600239638763026	59.08655080949676	0.001786228898921782	45.00300021656892	0	0	0	-14.26625885331949	0	75.18686819519166	45.00300021656892	0	0
7.67	0.6462654750821724	-1.864223926747683	-146.5346079250771	0	0.9399999999999999	0	44.84919320177153	-10.00069411439861	0	59.95748624538953	1.04645554620126	-5.000041090506585	0	0	44.84919320177153	-10.00069411439861	0	59.95748624538953	1.04645554620126	-5.000041090506585	0	0	1.932027114558293	-2.9833053866967	1.620168417585423	25.58305074430656	-7.85977546164551	59.43577664898191	0.001807249527561775	45.00299802327648	0	0	0	-14.26635809631411	0	75.18681884562417	45.00299802327648	0	0
7.68	0.639926791647717	-1.850426924485454	-146.5455727927844	0	0.9399999999999999	0	44.84923823751142	-10.00069339160548	0	59.95749625900672	1.04645572097185	-5.000041034513473	0	0	44.84923823751142	-10.00069339160548	0	59.95749625900672	1.04645572097185	-5.000041034513473	0	0	1.932846784063073	-2.969775063537309	1.616659949649661	25.66192019888553	-6.852824660744105	59.11279453676632	0.001785518669469989	45.00299555313139	0	0	0	-14.26647038711255	0	75.18676310823164	45.00299555313139	0	0
7.69	0.6380025126267944	-1.860919180132493	-146.5425054186946	0	0.9399999999999999	0	44.8493005778997	-10.00069238859013	0	59.9575100829588	1.04645596224533	-5.000040956792468	0	0	44.8493005778997	-10.00069238859013	0	59.9575100829588	1.04645596224533	-5.000040956792468	0	0	1.924733551352248	-2.978046487321521	1.617469899272146	25.2431208628129	-5.246859993780691	58.94074045221249	0.001766350136524613	45.0029921264435	0	0	0	-14.26662554480299	0	75.18668595416038	45.0029921264435	0	0
7.7	0.6519535135765092	-1.844215911778706	-146.5259744754094	0	0.9399999999999999	0	44.84933735122281	-10.00069180334437	0	59.95751830368312	1.046456105724036	-5.000040911547785	0	0	44.84933735122281	-10.00069180334437	0	59.95751830368312	1.046456105724036	-5.000040911547785	0	0	1.951621951888252	-2.970227557092477	1.609994853005697	25.49310724959134	-4.671884303001831	58.92627360357536	0.0017494554338187	45.002990122965	0	0	0	-14.26671761100178	0	75.18664044254776	45.002990122965	0	0
7.71	0.6268551580477441	-1.871756186742928	-146.5418765679652	0	0.9399999999999999	0	44.84936415853439	-10.00069137391979	0	59.95752426367471	1.046456209745512	-5.000040878310912	0	0	44.84936415853439	-10.00069137391979	0	59.95752426367471	1.046456209745512	-5.000040878310912	0	0	1.883203523792117	-2.997020441124036	1.638571198004671	24.86664899359676	-4.646603645293993	59.47094643200231	0.001763648887879181	45.0029886545307	0	0	0	-14.26678446707602	0	75.18660726512799	45.0029886545307	0	0
7.72	0.6511047509466369	-1.84623544213534	-146.5239447527046	0	0.9399999999999999	0	44.84940240803162	-10.00069076219728	0	59.95753277546998	1.046456358304365	-5.000040830985046	0	0	44.84940240803162	-10.00069076219728	0	59.95753277546998	1.046456358304365	-5.000040830985046	0	0	1.949967729042033	-2.973833314849714	1.611546623192286	25.32884669823328	-4.268680204576543	59.92074639546803	0.001745988466146569	45.0029865619958	0	0	0	-14.26687992976827	0	75.18655992656437	45.0029865619958	0	0
7.73	0.6529384540954101	-1.850940877129815	-146.5192108769968	0	0.9399999999999999	0	44.84943066605781	-10.00069031272598	0	59.95753909089292	1.046456468529289	-5.000040796249292	0	0	44.84943066605781	-10.00069031272598	0	59.95753909089292	1.046456468529289	-5.000040796249292	0	0	1.953863432976682	-2.977316743690466	1.604214778127335	25.32512452621098	-4.196600889723554	60.09575128240621	0.001743638025701383	45.00298502298223	0	0	0	-14.26695067677183	0	75.18652495370279	45.00298502298223	0	0
